<?xml version="1.0" encoding="UTF-8"?>
<svg version="1.1" xmlns="http://www.w3.org/2000/svg" width="225" height="225">
<path d="M0 0 C74.25 0 148.5 0 225 0 C225 74.25 225 148.5 225 225 C150.75 225 76.5 225 0 225 C0 150.75 0 76.5 0 0 Z " fill="#3E3E3E" transform="translate(0,0)"/>
<path d="M0 0 C0.86406149 0.00719622 1.72812298 0.01439243 2.61836815 0.02180672 C3.54044249 0.02156565 4.46251682 0.02132458 5.41253281 0.0210762 C8.40620917 0.02257258 11.3996385 0.03782014 14.39327049 0.053545 C16.23791445 0.05648443 18.08256008 0.05852549 19.92720604 0.05964851 C26.77789875 0.07014744 33.62855578 0.09806971 40.47920799 0.1238575 C55.78295799 0.1651075 71.08670799 0.2063575 86.85420799 0.2488575 C86.85420799 52.7188575 86.85420799 105.1888575 86.85420799 159.2488575 C52.53420799 159.2488575 18.21420799 159.2488575 -17.14579201 159.2488575 C-17.18595568 128.21126709 -17.18595568 128.21126709 -17.19604588 112.89525509 C-17.20159016 104.6074364 -17.20863225 96.31962777 -17.22123146 88.03181648 C-17.231201 81.47068404 -17.23765085 74.90955918 -17.2398805 68.34841937 C-17.24118374 64.87460275 -17.2442452 61.40080781 -17.25152206 57.92699814 C-17.25958099 54.04835924 -17.25978168 50.16974153 -17.2593174 46.29109383 C-17.26291267 45.14022789 -17.26650795 43.98936195 -17.27021217 42.80362129 C-17.26883751 41.74497871 -17.26746284 40.68633614 -17.26604652 39.59561348 C-17.26696832 38.67842946 -17.26789011 37.76124544 -17.26883984 36.81626797 C-17.14352964 34.20165294 -16.68799357 31.80535467 -16.14579201 29.2488575 C-16.14579201 28.4238575 -16.14579201 27.5988575 -16.14579201 26.7488575 C-16.14579201 24.07490568 -15.76506897 21.84982072 -15.14579201 19.2488575 C-14.89829201 18.1969825 -14.65079201 17.1451075 -14.39579201 16.0613575 C-11.97954954 7.7509478 -9.33136566 0.03280601 0 0 Z " fill="#686868" transform="translate(138.1457920074463,-0.2488574981689453)"/>
<path d="M0 0 C29.04 0 58.08 0 88 0 C88 52.47 88 104.94 88 159 C58.96 159 29.92 159 0 159 C0 106.53 0 54.06 0 0 Z " fill="#565656" transform="translate(0,0)"/>
<path d="M0 0 C74.25 0 148.5 0 225 0 C225 8.25 225 16.5 225 25 C150.75 25 76.5 25 0 25 C0 16.75 0 8.5 0 0 Z " fill="#D4D4D4" transform="translate(0,200)"/>
<path d="M0 0 C73.26 0 146.52 0 222 0 C222 7.92307692 222 7.92307692 220.25 11.1875 C219.92515625 11.82042969 219.6003125 12.45335937 219.265625 13.10546875 C217.62885656 15.55556965 216.35412113 17.16740497 214 19 C211.00923101 19.39609187 208.38560932 19.54725266 205.39471436 19.51898193 C204.51741645 19.52648319 203.64011855 19.53398444 202.73623586 19.541713 C199.79104077 19.5620432 196.84661163 19.55387703 193.90136719 19.54589844 C191.79242183 19.55463054 189.68348311 19.56511505 187.57455444 19.57722473 C181.84351668 19.60514963 176.1126944 19.60848798 170.38159847 19.60750484 C164.39442524 19.61062836 158.40734986 19.63623486 152.42022705 19.65948486 C141.08016885 19.70009141 129.74016822 19.72039653 118.40004849 19.73345876 C105.49083881 19.74931303 92.58172733 19.78772203 79.67257452 19.82805204 C53.11507975 19.91051472 26.5575946 19.96376699 0 20 C0 13.4 0 6.8 0 0 Z " fill="#000000" transform="translate(0,205)"/>
</svg>
