<?xml version="1.0" standalone="no"?>
<!DOCTYPE svg PUBLIC "-//W3C//DTD SVG 20010904//EN"
 "http://www.w3.org/TR/2001/REC-SVG-20010904/DTD/svg10.dtd">
<svg version="1.0" xmlns="http://www.w3.org/2000/svg"
 width="438.000000pt" height="115.000000pt" viewBox="0 0 438.000000 115.000000"
 preserveAspectRatio="xMidYMid meet">

<g transform="translate(0.000000,115.000000) scale(0.100000,-0.100000)"
fill="#000000" stroke="none">
<path d="M2550 1081 l0 -59 98 -37 c53 -21 111 -43 127 -50 l30 -12 -35 -15
c-19 -8 -77 -30 -127 -48 l-93 -34 0 -64 c0 -75 -28 -79 233 28 l192 78 3 54
3 54 -206 82 c-113 45 -210 82 -215 82 -6 0 -10 -27 -10 -59z"/>
<path d="M2763 633 l-63 -25 0 -49 c0 -48 -1 -49 -30 -49 -29 0 -30 -1 -30
-50 0 -49 1 -50 30 -50 l30 0 0 -151 c0 -219 20 -249 164 -249 l76 0 0 56 c0
56 0 56 -26 50 -17 -5 -35 -1 -50 9 -23 15 -24 19 -24 150 l0 135 48 0 47 0
-3 50 -4 50 -44 0 -44 0 0 75 c0 41 -3 75 -7 75 -5 -1 -36 -12 -70 -27z"/>
<path d="M713 519 c-111 -21 -174 -95 -189 -221 -14 -116 35 -226 118 -270 85
-44 233 -25 290 39 22 24 48 86 48 113 0 18 -6 20 -60 20 -59 0 -60 -1 -74
-34 -17 -40 -42 -56 -89 -56 -59 0 -97 63 -97 160 1 132 114 199 175 103 19
-31 23 -32 84 -33 l64 0 -7 32 c-21 105 -139 171 -263 147z"/>
<path d="M1230 519 c-63 -12 -119 -55 -149 -114 -34 -65 -41 -180 -16 -254 59
-178 337 -204 419 -39 41 81 38 88 -38 88 -60 0 -64 -2 -70 -25 -10 -39 -45
-65 -88 -65 -48 0 -84 32 -94 84 -11 62 0 153 23 184 42 57 115 54 143 -5 15
-32 16 -33 82 -33 49 0 66 3 64 13 -3 6 -7 24 -10 40 -9 38 -71 104 -109 116
-53 16 -109 20 -157 10z"/>
<path d="M1763 520 c-122 -25 -188 -118 -187 -265 2 -164 86 -250 244 -249
100 0 170 36 206 106 26 50 20 58 -45 58 -51 0 -61 -3 -74 -23 -38 -58 -136
-59 -168 -2 -9 17 -19 42 -23 58 l-6 27 165 0 165 0 0 68 c0 79 -23 136 -68
174 -51 42 -136 62 -209 48z m91 -100 c26 -10 39 -28 50 -72 l6 -28 -95 0
c-104 0 -111 5 -81 59 24 43 71 60 120 41z"/>
<path d="M4097 519 c-116 -28 -187 -126 -187 -259 0 -106 46 -192 124 -232 60
-32 174 -31 239 1 51 25 91 69 102 113 l7 28 -59 0 c-54 0 -61 -3 -81 -30 -26
-35 -78 -48 -123 -30 -31 13 -54 48 -60 90 l-4 25 163 3 162 2 0 53 c0 144
-67 225 -200 240 -25 3 -62 1 -83 -4z m96 -100 c26 -12 47 -47 47 -79 0 -18
-7 -20 -95 -20 -52 0 -95 2 -95 5 0 3 6 21 14 39 24 58 75 80 129 55z"/>
<path d="M114 495 c-35 -17 -57 -37 -72 -64 -36 -63 -32 -71 41 -71 58 0 63 2
79 30 15 26 23 30 62 30 50 0 76 -24 76 -71 0 -25 -2 -26 -79 -32 -43 -3 -97
-14 -120 -23 -75 -30 -112 -99 -96 -181 19 -105 183 -148 270 -71 l35 30 0
-31 0 -31 66 0 65 0 -3 204 c-3 188 -5 207 -24 233 -54 74 -200 98 -300 48z
m186 -305 c0 -56 -34 -90 -89 -90 -47 0 -71 20 -71 59 0 47 34 66 123 70 37 1
37 1 37 -39z"/>
<path d="M2350 509 c-14 -6 -37 -22 -52 -36 l-28 -27 0 32 0 32 -70 0 -70 0 0
-250 0 -250 70 0 70 0 0 165 c0 210 10 235 93 235 69 0 77 -23 77 -229 l0
-171 71 0 70 0 -3 203 c-3 225 -10 250 -71 287 -35 22 -114 26 -157 9z"/>
<path d="M3794 501 c-22 -10 -50 -31 -62 -47 l-21 -29 -1 43 0 42 -70 0 -70 0
0 -250 0 -250 70 0 70 0 0 135 c0 161 11 198 64 220 20 8 49 15 66 15 l30 0 0
70 c0 80 -5 83 -76 51z"/>
<path d="M3020 333 c0 -200 8 -243 54 -289 58 -58 170 -54 228 8 l28 30 0 -36
0 -36 70 0 70 0 0 250 0 250 -69 0 -70 0 -3 -174 c-3 -169 -4 -175 -27 -200
-18 -19 -35 -26 -60 -26 -73 0 -81 25 -81 236 l0 164 -70 0 -70 0 0 -177z"/>
</g>
</svg>
