<?xml version="1.0" standalone="no"?>
<!DOCTYPE svg PUBLIC "-//W3C//DTD SVG 20010904//EN"
 "http://www.w3.org/TR/2001/REC-SVG-20010904/DTD/svg10.dtd">
<svg version="1.0" xmlns="http://www.w3.org/2000/svg"
 width="300.000000pt" height="168.000000pt" viewBox="0 0 300.000000 168.000000"
 preserveAspectRatio="xMidYMid meet">

<g transform="translate(0.000000,168.000000) scale(0.100000,-0.100000)"
fill="#000000" stroke="none">
<path d="M1742 1180 l3 -43 85 -32 c77 -30 83 -34 60 -42 -14 -5 -53 -20 -87
-33 l-63 -22 0 -43 0 -43 143 57 142 57 3 35 3 35 -133 53 c-73 29 -139 55
-146 58 -10 4 -13 -5 -10 -37z"/>
<path d="M1883 879 c-37 -16 -43 -22 -43 -49 0 -23 -4 -30 -20 -30 -16 0 -20
-7 -20 -35 0 -28 4 -35 20 -35 19 0 20 -7 20 -100 0 -54 5 -110 11 -123 14
-32 49 -47 104 -47 l45 0 0 39 c0 34 -3 38 -20 34 -39 -10 -50 13 -50 108 l0
89 35 0 c33 0 35 2 35 35 0 33 -2 35 -34 35 -35 0 -35 0 -38 49 l-3 48 -42
-18z"/>
<path d="M492 800 c-69 -17 -112 -82 -112 -172 0 -102 60 -168 152 -168 86 0
148 46 148 110 0 17 -6 20 -40 20 -27 0 -40 -4 -40 -13 0 -23 -35 -47 -68 -47
-39 0 -62 38 -62 100 0 98 80 144 120 70 8 -15 21 -20 52 -20 40 0 40 0 34 32
-3 17 -11 37 -18 45 -30 37 -110 57 -166 43z"/>
<path d="M837 796 c-50 -19 -67 -34 -88 -81 -40 -86 -10 -202 61 -237 80 -41
187 -12 216 57 21 50 18 55 -26 55 -31 0 -42 -5 -51 -22 -16 -30 -28 -38 -60
-38 -34 0 -57 26 -64 75 -12 81 33 147 87 126 15 -5 29 -19 33 -30 5 -17 15
-21 51 -21 42 0 45 2 39 23 -26 84 -112 125 -198 93z"/>
<path d="M1185 795 c-22 -8 -50 -26 -62 -41 -46 -58 -52 -167 -13 -231 51 -84
219 -84 270 -1 27 45 26 48 -20 48 -28 0 -46 -7 -64 -25 -14 -14 -34 -25 -44
-25 -30 0 -72 38 -72 66 0 24 0 24 110 24 l110 0 0 38 c-1 53 -33 118 -68 136
-45 23 -102 28 -147 11z m103 -67 c5 -7 13 -23 16 -35 7 -22 5 -23 -58 -23
-71 0 -79 7 -50 48 17 25 74 31 92 10z"/>
<path d="M2763 799 c-98 -29 -142 -176 -82 -275 51 -85 218 -86 269 -2 27 44
26 48 -16 48 -24 0 -46 -8 -66 -25 -16 -14 -38 -25 -49 -25 -26 0 -69 43 -69
70 0 19 6 20 110 20 l110 0 0 38 c-1 53 -33 118 -68 136 -40 21 -100 27 -139
15z m95 -71 c5 -7 13 -23 16 -35 7 -22 5 -23 -58 -23 -71 0 -79 7 -50 48 17
25 74 31 92 10z"/>
<path d="M104 790 c-25 -10 -64 -57 -64 -76 0 -24 83 -18 98 6 23 38 92 16 92
-29 0 -15 -11 -19 -60 -24 -68 -7 -114 -28 -130 -56 -11 -22 -13 -80 -4 -106
17 -44 122 -60 168 -24 l26 20 0 -20 c0 -18 6 -21 45 -21 l45 0 0 130 c0 142
-8 173 -51 196 -30 15 -131 18 -165 4z m126 -209 c0 -20 -8 -35 -22 -45 -43
-31 -88 -14 -88 31 0 27 27 41 78 42 29 1 32 -2 32 -28z"/>
<path d="M1460 630 l0 -170 45 0 45 0 0 113 c0 86 4 118 16 135 17 25 65 30
82 9 7 -7 13 -66 14 -133 l3 -119 45 0 45 0 3 110 c4 134 -2 170 -33 201 -34
34 -111 34 -149 -1 l-26 -24 0 24 c0 23 -4 25 -45 25 l-45 0 0 -170z"/>
<path d="M2060 659 l0 -141 29 -29 c37 -37 104 -41 145 -8 l26 20 0 -20 c0
-18 6 -21 45 -21 l45 0 0 170 0 170 -45 0 -45 0 0 -119 c0 -132 -8 -151 -59
-151 -46 0 -51 14 -51 147 l0 123 -45 0 -45 0 0 -141z"/>
<path d="M2430 630 l0 -170 45 0 45 0 0 104 c0 101 1 105 26 125 15 12 37 21
50 21 22 0 24 4 24 45 0 39 -3 45 -21 45 -11 0 -34 -13 -50 -29 l-29 -29 0 29
c0 28 -2 29 -45 29 l-45 0 0 -170z"/>
</g>
</svg>
