<?xml version="1.0" standalone="no"?>
<!DOCTYPE svg PUBLIC "-//W3C//DTD SVG 20010904//EN"
 "http://www.w3.org/TR/2001/REC-SVG-20010904/DTD/svg10.dtd">
<svg version="1.0" xmlns="http://www.w3.org/2000/svg"
 width="299.000000pt" height="168.000000pt" viewBox="0 0 299.000000 168.000000"
 preserveAspectRatio="xMidYMid meet">

<g transform="translate(0.000000,168.000000) scale(0.100000,-0.100000)"
fill="#000000" stroke="none">
<path d="M1740 1177 c0 -42 1 -44 39 -56 22 -6 59 -20 83 -31 l42 -19 -29 -11
c-17 -7 -52 -20 -80 -29 -49 -16 -50 -17 -53 -58 -2 -24 0 -43 5 -43 4 0 67
24 138 53 l130 52 3 36 c3 39 3 39 -128 90 -30 11 -76 29 -102 40 l-48 19 0
-43z"/>
<path d="M1873 877 c-35 -17 -43 -26 -43 -49 0 -21 -5 -28 -20 -28 -16 0 -20
-7 -20 -35 0 -28 4 -35 20 -35 19 0 20 -7 20 -106 0 -103 1 -106 29 -135 25
-24 37 -29 80 -29 l51 0 0 39 c0 33 -3 38 -19 34 -36 -9 -50 21 -50 112 l0 85
35 0 c32 0 34 2 34 35 0 33 -2 35 -34 35 -35 0 -35 0 -38 49 l-3 48 -42 -20z"/>
<path d="M495 801 c-78 -19 -115 -74 -115 -171 0 -66 14 -102 55 -140 21 -20
39 -25 94 -28 64 -4 70 -2 104 27 34 30 62 83 50 95 -4 3 -22 6 -42 6 -29 0
-39 -6 -53 -30 -13 -22 -24 -30 -45 -30 -15 0 -33 4 -39 8 -54 35 -40 180 18
195 26 7 68 -16 68 -38 0 -11 12 -15 45 -15 50 0 56 10 30 60 -25 48 -105 76
-170 61z"/>
<path d="M847 800 c-73 -14 -117 -77 -117 -170 0 -66 14 -102 54 -140 21 -19
40 -25 90 -28 94 -6 134 21 160 106 7 21 4 22 -38 22 -32 0 -46 -4 -46 -13 0
-34 -65 -60 -96 -39 -21 14 -34 51 -34 97 0 38 5 52 29 76 37 36 46 36 81 -1
22 -24 36 -30 68 -30 37 0 40 2 35 23 -8 29 -40 75 -61 86 -28 14 -84 19 -125
11z"/>
<path d="M1200 803 c-38 -7 -90 -51 -106 -89 -19 -46 -18 -132 4 -174 37 -74
144 -104 228 -64 29 14 64 57 64 79 0 3 -20 5 -45 5 -25 0 -45 -4 -45 -9 0 -5
-13 -14 -28 -20 -42 -17 -79 0 -90 41 l-8 33 111 3 111 3 -7 60 c-7 59 -29 98
-69 119 -21 11 -90 19 -120 13z m82 -80 c10 -9 18 -24 18 -35 0 -15 -8 -18
-60 -18 -49 0 -60 3 -60 17 0 46 66 69 102 36z"/>
<path d="M2763 801 c-79 -20 -113 -72 -113 -171 0 -117 48 -170 155 -170 70 0
116 23 140 70 l16 30 -42 0 c-26 0 -50 -7 -66 -20 -14 -11 -34 -20 -43 -20
-26 0 -58 31 -66 63 l-6 27 112 0 113 0 -6 56 c-3 30 -13 66 -21 80 -30 45
-110 70 -173 55z m85 -73 c5 -7 13 -23 16 -35 7 -22 5 -23 -58 -23 -72 0 -81
10 -46 48 23 24 72 29 88 10z"/>
<path d="M74 766 c-48 -48 -45 -66 9 -66 31 0 45 5 55 20 24 38 92 16 92 -31
0 -16 -7 -19 -47 -19 -56 0 -127 -30 -142 -58 -20 -38 -13 -101 14 -127 33
-34 117 -36 152 -3 l23 21 0 -21 c0 -19 5 -22 45 -22 l45 0 0 138 c0 115 -3
140 -18 158 -27 34 -56 44 -127 44 -63 0 -69 -2 -101 -34z m154 -183 c4 -27
-30 -63 -61 -63 -51 0 -66 61 -19 79 43 16 77 9 80 -16z"/>
<path d="M1452 633 l3 -168 45 0 45 0 5 123 c5 130 10 142 57 142 45 0 53 -22
53 -151 l0 -119 45 0 45 0 0 129 c0 135 -10 185 -40 201 -32 17 -105 12 -133
-10 -25 -20 -25 -20 -30 0 -4 16 -14 20 -51 20 l-46 0 2 -167z"/>
<path d="M2052 655 c3 -147 3 -147 31 -171 36 -31 103 -33 140 -4 25 20 25 20
30 -1 5 -17 12 -20 49 -17 l43 3 0 165 0 165 -47 3 -48 3 0 -120 c0 -135 -8
-154 -64 -149 l-31 3 -5 130 -5 130 -48 3 -48 3 3 -146z"/>
<path d="M2420 630 l0 -170 45 0 45 0 0 98 c0 116 11 139 71 148 l40 7 -2 43
c-2 39 -5 44 -26 44 -13 0 -35 -11 -49 -25 -14 -14 -27 -25 -29 -25 -3 0 -5
11 -5 25 0 23 -4 25 -45 25 l-45 0 0 -170z"/>
</g>
</svg>
