<?xml version="1.0" standalone="no"?>
<!DOCTYPE svg PUBLIC "-//W3C//DTD SVG 20010904//EN"
 "http://www.w3.org/TR/2001/REC-SVG-20010904/DTD/svg10.dtd">
<svg version="1.0" xmlns="http://www.w3.org/2000/svg"
 width="352.000000pt" height="143.000000pt" viewBox="0 0 352.000000 143.000000"
 preserveAspectRatio="xMidYMid meet">

<g transform="translate(0.000000,143.000000) scale(0.100000,-0.100000)"
fill="#000000" stroke="none">
<path d="M470 715 l0 -235 96 0 c129 0 178 14 229 64 48 48 65 98 65 188 0
108 -52 181 -149 208 -20 5 -82 10 -138 10 l-103 0 0 -235z m204 125 c40 -15
58 -52 58 -118 0 -73 -21 -116 -63 -131 -70 -24 -69 -26 -69 124 l0 135 24 0
c14 0 36 -4 50 -10z"/>
<path d="M1280 715 l0 -235 55 0 55 0 0 235 0 235 -55 0 -55 0 0 -235z"/>
<path d="M1830 910 l0 -40 60 0 60 0 0 40 0 40 -60 0 -60 0 0 -40z"/>
<path d="M2125 935 c-5 -2 -27 -6 -47 -10 -37 -6 -38 -7 -38 -50 0 -38 -3 -45
-20 -45 -17 0 -20 -7 -20 -45 0 -38 3 -45 20 -45 19 0 20 -7 20 -90 0 -120 14
-155 70 -170 37 -10 70 -8 123 6 13 4 17 16 17 48 l0 43 -42 -1 -43 -1 -3 83
-3 82 36 0 c35 0 35 0 35 45 0 45 0 45 -35 45 l-35 0 0 55 c0 53 -5 60 -35 50z"/>
<path d="M2395 935 c-5 -2 -27 -6 -47 -10 -37 -6 -38 -7 -38 -50 0 -38 -3 -45
-20 -45 -17 0 -20 -7 -20 -45 0 -37 3 -45 19 -45 16 0 19 -11 24 -101 4 -79
10 -108 25 -128 25 -34 83 -47 140 -32 41 12 42 13 42 54 l0 43 -36 -4 c-47
-6 -54 6 -54 96 l0 72 40 0 40 0 0 45 0 45 -40 0 -40 0 0 55 c0 53 -5 60 -35
50z"/>
<path d="M1023 831 c-51 -13 -83 -39 -104 -84 -40 -90 -11 -210 61 -251 39
-23 155 -27 202 -8 25 10 26 13 16 51 -9 35 -13 39 -28 31 -48 -26 -150 -1
-150 36 0 11 20 14 106 14 l107 0 -5 63 c-6 70 -27 111 -67 131 -36 19 -99 26
-138 17z m95 -115 c3 -13 -6 -16 -47 -16 -28 0 -51 4 -51 8 0 13 24 39 40 45
19 6 54 -16 58 -37z"/>
<path d="M1565 831 c-44 -11 -74 -32 -95 -66 -44 -73 -33 -189 24 -244 91 -89
260 -44 282 74 18 96 -14 188 -74 219 -36 18 -100 26 -137 17z m77 -98 c24
-22 26 -134 2 -158 -22 -22 -56 -15 -72 15 -19 36 -10 129 13 146 24 18 35 18
57 -3z"/>
<path d="M2673 831 c-83 -21 -117 -72 -118 -176 0 -126 58 -181 190 -179 93 1
115 13 106 56 l-7 33 -66 -3 c-57 -3 -69 -1 -87 17 -12 12 -21 26 -21 31 0 6
42 10 105 10 l105 0 0 53 c0 94 -46 149 -135 160 -22 3 -55 2 -72 -2z m97
-111 c10 -19 7 -20 -45 -20 -57 0 -64 5 -42 32 25 33 66 27 87 -12z"/>
<path d="M1830 655 l0 -175 60 0 60 0 0 175 0 175 -60 0 -60 0 0 -175z"/>
</g>
</svg>
