<?xml version="1.0" standalone="no"?>
<!DOCTYPE svg PUBLIC "-//W3C//DTD SVG 20010904//EN"
 "http://www.w3.org/TR/2001/REC-SVG-20010904/DTD/svg10.dtd">
<svg version="1.0" xmlns="http://www.w3.org/2000/svg"
 width="1024.000000pt" height="256.000000pt" viewBox="0 0 1024.000000 256.000000"
 preserveAspectRatio="xMidYMid meet">

<g transform="translate(0.000000,256.000000) scale(0.100000,-0.100000)"
fill="#000000" stroke="none">
<path d="M980 2060 c0 -18 7 -20 85 -20 l86 0 -3 -522 c-3 -473 -5 -527 -21
-568 -34 -84 -101 -129 -194 -130 -100 0 -130 31 -140 145 -8 98 -27 125 -86
125 -51 -1 -72 -15 -93 -65 -20 -48 -11 -121 19 -167 51 -76 195 -111 370 -90
190 24 288 105 322 268 12 55 15 166 15 537 l0 467 85 0 c78 0 85 2 85 20 0
19 -7 20 -265 20 -258 0 -265 -1 -265 -20z"/>
<path d="M1880 2060 c0 -18 7 -20 75 -20 l76 0 -3 -558 c-3 -521 -4 -560 -21
-586 -22 -33 -72 -56 -122 -56 -31 0 -35 -3 -35 -25 l0 -25 278 2 c269 3 277
4 277 23 0 17 -9 21 -54 27 -58 7 -99 31 -118 69 -9 17 -13 86 -13 227 l0 202
129 0 c216 0 348 37 431 120 70 70 85 114 85 260 0 109 -3 131 -23 175 -29 64
-64 100 -126 132 -90 46 -154 53 -508 53 -321 0 -328 0 -328 -20z m635 -53
c116 -39 165 -116 173 -268 6 -131 -12 -194 -77 -259 -66 -66 -143 -90 -287
-90 l-104 0 0 319 0 320 48 3 c76 5 193 -7 247 -25z"/>
<path d="M3130 2060 c0 -18 7 -20 75 -20 l75 0 0 -555 c0 -610 1 -598 -60
-630 -16 -8 -43 -15 -60 -15 -25 0 -30 -4 -30 -25 l0 -25 180 0 180 0 0 25 c0
21 -5 25 -29 25 -40 0 -94 40 -108 80 -18 51 -18 980 0 980 6 0 117 -246 247
-551 129 -303 241 -554 248 -556 8 -3 19 1 26 8 7 8 109 253 226 544 117 292
217 534 222 539 4 6 8 -207 8 -472 0 -411 -2 -487 -15 -512 -18 -35 -46 -52
-100 -59 -31 -5 -40 -10 -40 -26 0 -19 8 -20 253 -23 l252 -2 0 24 c0 20 -6
24 -45 29 -25 2 -55 13 -67 23 -48 43 -48 49 -48 628 l0 545 67 3 c55 2 68 6
71 21 3 16 -10 17 -165 17 l-169 0 -195 -487 c-107 -267 -199 -488 -206 -490
-6 -2 -97 199 -219 486 l-209 491 -182 0 c-176 0 -183 -1 -183 -20z"/>
<path d="M7458 1770 c-9 -6 -24 -31 -34 -58 -10 -26 -22 -53 -27 -59 -16 -21
-75 -15 -116 12 -100 67 -252 91 -371 61 -176 -45 -269 -181 -258 -377 9 -143
67 -229 182 -265 31 -10 56 -21 56 -25 0 -4 -17 -10 -37 -14 -164 -31 -253
-125 -223 -237 28 -101 117 -135 400 -149 223 -11 286 -24 324 -70 35 -41 36
-120 4 -170 -89 -134 -480 -156 -577 -33 -17 21 -21 41 -21 94 0 78 -18 104
-72 102 -53 -1 -78 -39 -78 -115 0 -111 64 -168 223 -201 95 -20 260 -20 350
-1 185 39 297 160 297 319 0 141 -67 225 -203 256 -25 5 -137 14 -250 19 -237
11 -266 19 -267 79 0 54 50 75 287 121 233 44 338 138 351 310 4 61 -6 137
-23 184 -6 15 -1 17 44 17 68 0 123 28 145 75 39 82 -33 167 -106 125z m-348
-102 c34 -17 51 -35 70 -73 23 -46 25 -59 25 -200 0 -140 -2 -153 -25 -200
-34 -67 -70 -87 -159 -87 -85 0 -124 19 -151 72 -41 80 -48 257 -15 368 38
124 146 175 255 120z"/>
<path d="M5112 1729 c-79 -15 -159 -59 -212 -115 -87 -92 -125 -206 -124 -374
1 -161 42 -277 128 -362 86 -84 202 -124 335 -116 135 9 249 72 324 178 101
145 115 403 31 575 -83 168 -277 255 -482 214z m195 -62 c112 -42 151 -167
140 -457 -8 -212 -31 -298 -96 -353 -61 -51 -207 -58 -274 -13 -80 54 -97 126
-97 402 0 275 27 366 122 413 49 24 150 28 205 8z"/>
<path d="M7884 1725 c-138 -30 -224 -107 -224 -202 0 -33 5 -46 26 -62 62 -49
135 -8 148 81 14 95 68 138 172 138 126 0 165 -51 172 -227 l4 -111 -58 -7
c-351 -39 -508 -151 -492 -349 6 -74 48 -141 113 -181 45 -28 56 -30 139 -30
80 0 97 4 146 29 30 16 76 46 101 67 51 43 59 46 59 24 0 -22 61 -86 97 -101
64 -27 163 -13 212 30 49 43 83 166 46 166 -8 0 -15 -9 -15 -19 0 -11 -12 -33
-26 -50 -30 -36 -70 -41 -105 -12 l-24 19 -5 324 c-5 312 -6 324 -28 365 -12
24 -40 54 -60 68 -76 50 -265 69 -398 40z m296 -595 l0 -149 -52 -40 c-100
-73 -166 -91 -237 -61 -67 28 -99 150 -59 226 47 87 198 172 311 173 l37 1 0
-150z"/>
<path d="M6303 1719 c-81 -15 -139 -63 -184 -152 -19 -37 -23 -39 -29 -21 -5
11 -14 55 -20 97 l-13 77 -156 -2 c-153 -3 -156 -3 -159 -25 -3 -22 -1 -23 82
-23 l86 0 0 -360 c0 -406 -2 -419 -64 -445 -20 -8 -52 -15 -71 -15 -34 0 -36
-2 -33 -27 l3 -28 263 -3 262 -2 0 30 c0 28 -2 30 -37 30 -21 0 -54 8 -73 18
-56 28 -62 60 -58 332 l3 235 30 54 c37 67 82 102 140 109 44 4 46 3 99 -52
43 -45 61 -56 86 -56 45 0 80 38 80 88 0 100 -111 166 -237 141z"/>
<path d="M9138 1717 c-76 -22 -144 -77 -205 -166 -7 -11 -16 14 -32 86 l-16
78 -143 3 -142 3 0 -26 c0 -24 2 -25 70 -25 l70 0 0 -360 c0 -436 0 -436 -102
-454 -34 -6 -38 -10 -38 -36 l0 -30 226 0 225 0 -3 32 c-2 26 -9 33 -34 40
-17 4 -39 17 -50 29 -17 19 -19 41 -22 273 -2 165 0 269 8 304 27 123 162 195
276 147 26 -11 40 -26 57 -62 21 -45 22 -64 25 -343 l4 -296 -27 -26 c-15 -15
-39 -28 -53 -30 -22 -2 -28 -9 -30 -36 l-3 -32 218 2 218 3 3 27 c3 23 -1 28
-25 33 -50 11 -72 23 -90 52 -16 24 -19 60 -23 333 -5 283 -7 308 -26 350 -23
50 -70 95 -123 117 -48 21 -157 25 -213 10z"/>
<path d="M1543 955 c-68 -29 -80 -120 -22 -169 45 -38 92 -35 135 8 56 56 42
131 -32 162 -40 17 -41 17 -81 -1z"/>
<path d="M2723 955 c-68 -29 -80 -120 -22 -169 69 -58 169 -9 169 82 0 37 -26
71 -66 88 -40 17 -41 17 -81 -1z"/>
</g>
</svg>
