<?xml version="1.0" standalone="no"?>
<!DOCTYPE svg PUBLIC "-//W3C//DTD SVG 20010904//EN"
 "http://www.w3.org/TR/2001/REC-SVG-20010904/DTD/svg10.dtd">
<svg version="1.0" xmlns="http://www.w3.org/2000/svg"
 width="300.000000pt" height="116.000000pt" viewBox="0 0 300.000000 116.000000"
 preserveAspectRatio="xMidYMid meet">

<g transform="translate(0.000000,116.000000) scale(0.100000,-0.100000)"
fill="#000000" stroke="none">
<path d="M150 837 l0 -324 -70 -234 c-39 -129 -72 -240 -75 -247 -4 -10 12
-12 67 -10 l72 3 31 100 31 100 51 3 50 3 43 -106 42 -105 74 0 c41 0 74 3 74
6 0 4 -20 49 -45 102 -25 52 -45 96 -45 98 0 2 61 4 136 4 124 0 135 -1 130
-17 -14 -45 -56 -187 -56 -190 0 -2 29 -3 63 -3 l64 0 35 117 c19 64 40 119
47 121 6 2 11 -3 11 -12 0 -14 25 -16 206 -16 l207 0 -7 -27 c-3 -16 -17 -63
-30 -106 l-24 -77 58 0 59 0 26 87 c15 49 29 96 31 106 4 14 17 17 65 17 l59
0 0 -37 c0 -21 3 -68 7 -105 l6 -68 62 0 62 0 67 105 68 105 54 0 c30 0 54 -4
54 -8 0 -5 -13 -52 -29 -105 l-29 -97 73 0 73 0 16 67 c10 38 21 85 27 106
l10 37 58 0 58 0 12 -53 c31 -139 151 -193 370 -168 101 11 116 18 126 59 3
15 15 57 26 95 l20 67 139 0 140 0 0 465 0 465 -330 0 -330 0 0 -282 -1 -283
-34 -39 -35 -39 0 321 0 322 -330 0 -330 0 0 -255 0 -255 -35 0 -35 0 0 255 0
255 -330 0 -330 0 0 -254 c0 -238 -1 -254 -18 -258 -12 -4 -24 -23 -33 -54
-13 -45 -14 -24 -17 259 l-2 307 -330 0 -330 0 0 -323z m638 -37 l3 -335 -32
-107 -32 -108 -143 0 -144 0 -25 50 c-14 27 -25 51 -25 53 0 2 68 66 150 142
83 77 150 143 150 147 0 4 -35 8 -78 8 l-77 0 -140 -140 c-76 -76 -140 -138
-142 -136 -2 1 15 63 37 136 22 73 40 135 40 137 0 2 -31 3 -69 3 -46 0 -71
-4 -74 -12 -3 -7 -6 103 -6 245 l-1 257 303 -2 302 -3 3 -335z m730 93 l2
-243 -44 0 c-25 0 -48 -5 -52 -11 -3 -6 -32 -95 -63 -197 l-58 -187 -196 -3
c-129 -1 -197 1 -197 8 0 6 30 10 73 10 107 0 172 23 228 79 38 37 49 57 59
103 33 147 -38 197 -277 198 l-83 0 0 245 0 245 303 -2 302 -3 3 -242z m727
-93 l0 -335 -28 -63 c-16 -35 -31 -82 -35 -105 l-7 -42 -58 -3 c-36 -2 -57 1
-57 8 0 6 20 91 45 190 25 99 45 184 45 190 0 6 -37 10 -100 10 l-99 0 -52
-73 c-28 -39 -85 -130 -127 -200 -68 -116 -78 -128 -101 -125 l-26 3 -5 438
c-3 241 -3 441 -1 443 3 2 140 3 305 2 l301 -3 0 -335z m730 -105 l0 -440
-124 -3 -123 -3 6 26 c3 14 9 36 12 50 l6 26 -133 -3 -133 -3 -15 -48 -15 -48
-45 3 -46 3 -3 80 c-4 103 0 117 50 171 47 51 98 69 166 59 58 -9 82 -34 82
-85 l0 -41 63 3 62 3 0 50 c-1 64 -28 105 -93 137 -67 33 -216 33 -281 0 -25
-12 -46 -22 -48 -22 -6 0 -3 517 4 523 4 4 142 6 307 5 l301 -3 0 -440z
m-1842 -162 c22 -20 21 -47 -2 -100 -27 -57 -61 -73 -161 -73 -44 0 -80 3 -80
7 0 14 43 159 52 177 9 17 18 18 91 11 52 -4 88 -12 100 -22z m388 -198 l4
-80 -54 -3 c-41 -2 -52 0 -49 10 3 7 22 74 44 148 l39 135 6 -65 c4 -36 8
-101 10 -145z m444 63 l-43 -143 -51 -3 c-28 -2 -51 -1 -51 2 0 6 181 286 185
286 1 0 -17 -64 -40 -142z m502 -168 c96 0 124 -3 121 -12 -3 -7 -13 -36 -22
-64 -18 -55 -33 -64 -113 -64 -115 0 -163 81 -132 223 l14 62 3 -72 3 -73 126
0z m-2191 77 l22 -52 -35 -3 c-19 -2 -37 -1 -40 2 -7 7 17 106 25 106 4 0 17
-24 28 -53z m1392 -124 c-28 -64 -28 -64 -28 -5 0 48 2 52 24 52 l25 0 -21
-47z"/>
</g>
</svg>
