<?xml version="1.0" standalone="no"?>
<!DOCTYPE svg PUBLIC "-//W3C//DTD SVG 20010904//EN"
 "http://www.w3.org/TR/2001/REC-SVG-20010904/DTD/svg10.dtd">
<svg version="1.0" xmlns="http://www.w3.org/2000/svg"
 width="300.000000pt" height="168.000000pt" viewBox="0 0 300.000000 168.000000"
 preserveAspectRatio="xMidYMid meet">

<g transform="translate(0.000000,168.000000) scale(0.100000,-0.100000)"
fill="#000000" stroke="none">
<path d="M180 1102 l0 -308 -75 -248 c-41 -137 -75 -250 -75 -252 0 -2 30 -4
68 -4 l67 0 30 103 30 102 51 3 51 3 43 -106 42 -105 74 0 c85 0 84 -9 20 119
-20 39 -36 75 -36 81 0 6 48 10 130 10 97 0 130 -3 130 -12 0 -7 -13 -55 -29
-105 l-29 -93 62 0 63 0 35 117 c19 64 40 119 47 121 6 2 11 -3 11 -12 0 -14
25 -16 205 -16 113 0 205 -1 205 -3 0 -2 -13 -46 -30 -97 -16 -52 -30 -98 -30
-102 0 -5 25 -8 55 -8 l54 0 32 105 32 105 58 0 57 0 7 -105 7 -105 60 0 59 0
67 105 67 105 58 0 c31 0 57 -1 57 -2 0 -2 -14 -46 -30 -98 -16 -52 -30 -98
-30 -102 0 -5 31 -8 69 -8 l69 0 16 68 c10 37 21 84 27 105 l10 37 58 0 58 0
12 -52 c21 -92 83 -148 189 -168 50 -9 244 4 271 19 8 5 27 51 41 103 l27 93
136 3 137 3 0 454 0 455 -320 0 -320 0 0 -276 0 -277 -35 -38 -35 -39 -2 313
-3 312 -322 3 -323 2 0 -255 0 -255 -35 0 -35 0 0 255 0 255 -322 -2 -323 -3
-3 -252 c-2 -224 -4 -252 -19 -255 -9 -2 -24 -24 -34 -53 -17 -50 -17 -49 -18
258 l-1 307 -320 0 -320 0 0 -308z m620 -54 l0 -343 -29 -90 -28 -90 -145 -3
-144 -3 -24 50 -23 50 89 83 c49 46 116 109 149 140 l60 58 -80 0 -80 0 -134
-134 -134 -135 21 -55 21 -56 -43 0 -44 0 57 188 58 187 -65 3 c-45 2 -68 -1
-73 -10 -5 -7 -9 103 -9 245 l0 257 300 0 300 0 0 -342z m718 95 l2 -243 -48
0 -48 0 -33 -107 c-18 -60 -44 -145 -58 -190 l-25 -83 -202 1 c-183 2 -193 3
-113 11 116 12 186 39 231 88 80 88 72 226 -14 263 -14 6 -86 13 -160 16
l-135 6 -3 230 c-1 126 0 235 3 242 3 11 67 13 302 11 l298 -3 3 -242z m720
-75 l2 -317 -26 -58 c-14 -32 -31 -83 -38 -113 l-12 -55 -57 -3 c-37 -2 -57 1
-57 8 0 10 73 309 86 353 5 15 -4 17 -98 17 l-103 0 -71 -107 c-39 -60 -93
-145 -119 -190 -41 -72 -51 -83 -75 -83 l-27 0 -6 182 c-9 237 -9 673 0 681 4
4 140 6 302 5 l296 -3 3 -317z m712 -113 l0 -435 -124 0 -124 0 14 45 13 46
-131 -3 -131 -3 -11 -40 c-11 -39 -13 -40 -59 -43 l-47 -3 0 99 0 99 40 46
c46 52 93 72 156 64 67 -7 94 -29 94 -77 l0 -40 60 0 c55 0 60 2 66 24 14 58
-35 129 -111 162 -57 25 -184 23 -252 -4 l-53 -20 0 259 0 259 300 0 300 0 0
-435z m-1807 -163 c18 -19 19 -24 7 -65 -6 -25 -25 -58 -41 -73 -26 -25 -37
-28 -119 -32 -102 -5 -99 -7 -75 73 9 28 20 67 26 89 l11 39 85 -6 c68 -4 90
-9 106 -25z m380 -179 l4 -93 -54 0 c-40 0 -54 3 -50 13 2 6 22 73 43 147 l39
134 6 -54 c4 -30 9 -97 12 -147z m436 48 l-43 -141 -53 0 -53 0 57 88 c31 48
72 112 92 143 20 31 37 55 39 54 2 -1 -16 -66 -39 -144z m491 -161 c66 0 120
-3 120 -7 0 -3 -8 -31 -17 -61 -19 -61 -36 -72 -109 -72 -58 0 -108 21 -131
56 -22 34 -23 119 -2 184 l14 45 3 -72 3 -73 119 0z m-788 -60 c-14 -32 -27
-58 -28 -57 -1 1 1 28 3 60 5 51 8 57 28 57 l23 0 -26 -60z"/>
</g>
</svg>
