<?xml version="1.0" standalone="no"?>
<!DOCTYPE svg PUBLIC "-//W3C//DTD SVG 20010904//EN"
 "http://www.w3.org/TR/2001/REC-SVG-20010904/DTD/svg10.dtd">
<svg version="1.0" xmlns="http://www.w3.org/2000/svg"
 width="330.000000pt" height="110.000000pt" viewBox="0 0 330.000000 110.000000"
 preserveAspectRatio="xMidYMid meet">

<g transform="translate(0.000000,110.000000) scale(0.100000,-0.100000)"
fill="#000000" stroke="none">
<path d="M369 763 c-67 -153 -149 -345 -149 -349 0 -2 32 -4 70 -4 l70 0 33
67 32 68 78 2 c92 3 133 20 181 73 64 71 69 158 11 180 -15 6 -89 10 -166 10
l-140 0 -20 -47z m209 -69 c4 -28 -41 -64 -79 -64 -34 0 -35 7 -12 55 15 32
21 36 53 33 27 -2 36 -8 38 -24z"/>
<path d="M845 780 c-8 -16 -15 -34 -15 -40 0 -7 98 -10 304 -10 326 0 318 -1
331 53 l7 27 -306 0 -305 0 -16 -30z"/>
<path d="M1530 768 c-10 -24 -48 -110 -84 -193 -36 -82 -66 -153 -66 -158 0
-4 30 -7 66 -5 l67 3 83 193 c46 106 84 195 84 198 0 2 -30 4 -66 4 l-65 0
-19 -42z"/>
<path d="M1755 778 c-7 -18 -11 -36 -9 -40 2 -3 29 -7 59 -7 52 0 85 15 85 39
0 5 3 15 6 24 5 14 -4 16 -60 16 -66 0 -67 0 -81 -32z"/>
<path d="M2060 799 c-33 -14 -58 -37 -86 -81 -17 -26 -32 -38 -48 -38 -15 0
-27 -9 -34 -25 -17 -36 -15 -45 8 -45 27 0 26 -5 -15 -94 -48 -106 -48 -108
27 -104 l63 3 42 95 c41 91 44 95 77 98 27 2 37 9 46 32 14 35 7 50 -20 43
-11 -3 -20 -1 -20 4 0 17 36 43 58 43 20 0 52 43 52 70 0 13 -116 12 -150 -1z"/>
<path d="M2255 778 c-16 -40 -10 -45 55 -47 46 -1 80 16 80 39 0 5 3 15 6 24
5 14 -4 16 -60 16 -66 0 -67 0 -81 -32z"/>
<path d="M980 683 c-8 -3 -28 -15 -44 -26 l-28 -20 7 22 c6 21 5 22 -54 19
l-61 -3 -51 -115 c-72 -163 -72 -150 -1 -150 l61 0 33 62 c35 66 83 108 124
108 18 0 29 11 48 49 30 58 20 74 -34 54z"/>
<path d="M1153 676 c-92 -29 -157 -109 -151 -187 4 -60 39 -84 121 -83 96 1
143 19 197 74 79 81 84 173 10 199 -43 14 -124 13 -177 -3z m73 -81 c15 -37
-39 -124 -70 -112 -29 11 20 127 55 127 5 0 12 -7 15 -15z"/>
<path d="M2502 675 c-92 -29 -156 -108 -150 -187 4 -58 40 -83 116 -83 80 0
109 11 127 45 21 40 20 41 -24 34 -46 -7 -81 9 -81 37 0 12 16 37 35 56 32 32
39 34 86 32 48 -3 52 -1 66 26 14 26 14 30 -3 42 -23 17 -116 16 -172 -2z"/>
<path d="M2805 675 c-45 -16 -105 -75 -105 -103 0 -27 30 -50 75 -60 47 -9 56
-28 21 -43 -20 -10 -34 -9 -69 5 -23 9 -46 16 -49 16 -10 0 -31 -70 -23 -78 3
-4 48 -6 98 -6 66 0 101 5 123 17 39 20 84 72 84 97 0 22 -45 60 -71 60 -28 0
-49 11 -49 26 0 20 42 27 86 15 52 -15 50 -15 64 20 11 26 11 32 -1 40 -22 14
-139 10 -184 -6z"/>
<path d="M1661 561 c-28 -66 -54 -127 -57 -136 -6 -14 2 -16 62 -13 l68 3 52
120 c29 66 53 126 53 133 1 8 -18 12 -63 12 l-64 0 -51 -119z"/>
<path d="M2165 568 c-27 -62 -52 -117 -57 -123 -4 -5 -8 -15 -8 -22 0 -11 16
-13 67 -11 l67 3 53 124 c29 69 53 128 53 133 0 4 -29 8 -64 8 l-63 0 -48
-112z"/>
<path d="M3024 475 c-11 -8 -14 -15 -6 -15 6 0 12 -9 12 -19 0 -14 5 -18 20
-14 25 7 26 30 3 36 -15 4 -15 5 -2 6 9 0 22 -6 29 -14 26 -31 -29 -61 -59
-32 -11 10 -13 9 -9 -3 3 -8 17 -16 32 -18 53 -6 76 43 34 72 -28 20 -29 20
-54 1z"/>
</g>
</svg>
