<?xml version="1.0" standalone="no"?>
<!DOCTYPE svg PUBLIC "-//W3C//DTD SVG 20010904//EN"
 "http://www.w3.org/TR/2001/REC-SVG-20010904/DTD/svg10.dtd">
<svg version="1.0" xmlns="http://www.w3.org/2000/svg"
 width="577.000000pt" height="87.000000pt" viewBox="0 0 577.000000 87.000000"
 preserveAspectRatio="xMidYMid meet">

<g transform="translate(0.000000,87.000000) scale(0.100000,-0.100000)"
fill="#000000" stroke="none">
<path d="M3831 860 c-110 -23 -200 -95 -248 -199 l-28 -61 -51 0 -51 0 -32
-75 c-17 -41 -31 -79 -31 -85 0 -5 20 -10 45 -10 25 0 45 -2 45 -5 0 -3 -36
-92 -80 -198 -44 -106 -80 -196 -80 -200 0 -4 64 -7 143 -7 l143 0 85 205 84
205 61 0 61 0 35 85 36 85 -59 0 c-32 0 -59 2 -59 5 0 4 7 19 15 35 19 38 63
60 115 60 40 0 42 1 64 53 39 87 39 94 14 101 -43 11 -183 15 -227 6z"/>
<path d="M332 813 c-11 -26 -89 -212 -172 -413 -84 -201 -154 -368 -157 -373
-2 -4 64 -6 147 -5 l152 3 58 140 59 140 163 5 164 5 76 38 c94 46 157 112
207 217 62 130 47 218 -45 265 -36 18 -62 20 -335 23 l-296 3 -21 -48z m383
-145 c14 -6 28 -21 31 -34 8 -32 -31 -101 -69 -121 -30 -16 -187 -35 -187 -23
0 6 68 168 76 181 8 13 119 11 149 -3z"/>
<path d="M1285 828 c-7 -18 -23 -55 -34 -81 -12 -27 -21 -51 -21 -53 0 -2 290
-4 644 -4 l643 0 35 85 36 85 -645 0 -644 0 -14 -32z"/>
<path d="M3138 792 c-15 -37 -30 -75 -34 -84 -6 -17 5 -18 133 -18 l140 0 35
85 36 85 -142 0 -141 0 -27 -68z"/>
<path d="M4183 843 c-4 -10 -19 -47 -34 -83 l-27 -65 135 -3 c75 -1 140 1 144
5 4 4 19 37 34 73 15 36 29 71 32 78 4 9 -27 12 -136 12 -126 0 -142 -2 -148
-17z"/>
<path d="M2547 452 c-91 -219 -169 -405 -173 -415 -6 -16 6 -17 134 -17 102 0
141 3 145 12 3 7 80 192 171 412 91 219 166 400 166 402 0 2 -62 4 -139 4
l-138 0 -166 -398z"/>
<path d="M1545 586 c-27 -12 -71 -44 -97 -69 -27 -25 -48 -45 -48 -43 0 2 11
29 25 60 14 31 25 59 25 62 0 2 -59 3 -131 2 l-131 -3 -119 -285 c-65 -157
-119 -286 -119 -288 0 -1 63 -1 141 0 l141 3 47 114 c72 175 142 241 254 241
l55 0 42 102 c23 56 44 107 47 115 9 22 -76 16 -132 -11z"/>
<path d="M1956 594 c-174 -42 -310 -184 -347 -361 -11 -54 -10 -66 5 -107 10
-25 29 -55 43 -66 89 -70 320 -67 470 6 113 55 213 179 248 309 43 159 -44
236 -264 234 -53 0 -122 -7 -155 -15z m118 -160 c21 -20 14 -49 -35 -152 -32
-66 -47 -86 -74 -99 -28 -13 -37 -14 -50 -3 -22 18 -19 40 15 130 22 55 42 88
66 109 39 35 56 38 78 15z"/>
<path d="M4725 600 c-163 -35 -261 -112 -333 -260 -32 -65 -37 -85 -37 -147 0
-84 17 -114 86 -153 38 -21 59 -24 159 -27 68 -2 139 2 174 9 l58 13 33 80
c19 44 33 81 32 81 -1 1 -30 -5 -65 -14 -151 -37 -213 44 -131 172 48 77 151
113 239 82 24 -8 46 -14 47 -12 2 2 19 40 38 84 30 72 32 81 17 88 -25 11
-271 14 -317 4z"/>
<path d="M5338 595 c-124 -31 -208 -96 -243 -189 -34 -88 0 -134 120 -162 92
-21 115 -30 115 -48 0 -45 -167 -57 -254 -18 -27 12 -50 21 -51 20 -2 -2 -17
-36 -34 -77 -36 -85 -37 -84 54 -100 136 -24 283 -9 391 38 94 42 173 143 174
223 0 63 -38 84 -205 116 -30 6 -40 13 -40 27 0 15 12 24 45 34 43 14 107 9
210 -14 23 -5 27 0 56 69 31 74 31 74 10 81 -47 15 -290 15 -348 0z"/>
<path d="M3057 593 c-7 -11 -237 -564 -237 -569 0 -2 62 -4 139 -4 l138 0 68
163 c37 89 92 219 121 290 l53 127 -139 0 c-76 0 -141 -3 -143 -7z"/>
<path d="M4015 438 c-37 -90 -92 -220 -121 -291 l-53 -128 141 3 142 3 117
280 c65 154 118 283 118 288 1 4 -61 7 -138 7 l-138 0 -68 -162z"/>
<path d="M5650 140 c-25 -25 -26 -72 -2 -93 41 -37 112 -6 112 48 0 32 -33 65
-65 65 -14 0 -34 -9 -45 -20z m80 -10 c24 -24 25 -47 3 -72 -20 -22 -51 -23
-75 -1 -25 22 -23 59 4 77 30 21 44 20 68 -4z"/>
<path d="M5667 124 c-11 -11 -8 -64 3 -64 6 0 10 7 10 17 0 15 2 15 19 -1 18
-16 19 -16 17 16 -1 25 -7 34 -22 36 -11 2 -23 0 -27 -4z m38 -14 c3 -5 -1
-10 -9 -10 -9 0 -16 5 -16 10 0 6 4 10 9 10 6 0 13 -4 16 -10z"/>
</g>
</svg>
